<?xml version="1.0" standalone="no"?><!DOCTYPE svg PUBLIC "-//W3C//DTD SVG 1.1//EN" "http://www.w3.org/Graphics/SVG/1.1/DTD/svg11.dtd"><svg t="1682691312885" class="icon" viewBox="0 0 1024 1024" version="1.1" xmlns="http://www.w3.org/2000/svg" p-id="14063" xmlns:xlink="http://www.w3.org/1999/xlink" width="150" height="150"><path d="M321.88885013 914.05548587s-40.7937312 1.9223776-64.5263584 49.53618133c0 0-9.76808213 20.74966507 8.51744427 26.68173013l17.31341547-18.72570773s-28.06562347 14.38397333-8.13952214 31.41886187c15.65317973 13.3823712 36.27505067-9.23724373 53.63106347-24.7211232 24.57148373-21.9216608 28.85423573-29.97926293 21.70648533-43.66855894l-28.502528-20.52138346z" fill="#F6D2A2" p-id="14064"></path><path d="M729.74751467 914.89980373s40.78826987 2.0545408 64.36688853 49.74370987c0 0 9.70145387 20.78024853-8.60373227 26.6533312l-17.2533408-18.78032s28.018656 14.4735392 8.03794134 31.443984c-15.6968704 13.33212693-36.24555947-9.3541152-53.55023574-24.89370027-24.50157867-22.0013952-28.757024-30.07319787-21.56449173-43.73955626l28.56697067-20.42744854z" fill="#F6D2A2" p-id="14065"></path><path d="M302.25984427 90.97304747s-29.73678187-26.05258773-68.5851968-9.5190464c-22.07239253 9.3934368-37.70918827 29.54235947-43.07655467 52.92218666-5.53338987 24.0985344 1.89834773 59.26931093 47.65093973 69.43716054l26.32237654-57.0312704 37.6884352-55.8090304z" fill="#C3E3EE" p-id="14066"></path><path d="M741.7503616 89.82617493s29.73678187-26.05258773 68.5851968-9.51904746c22.07239253 9.3934368 37.70700373 29.54235947 43.07655467 52.92218773 5.53338987 24.0985344-1.89725547 59.26931093-47.65093974 69.43715947l-26.32128426-57.0323616-37.68952747-55.80793814z" fill="#C3E3EE" p-id="14067"></path><path d="M824.98931947 96.05970347l-2.22384107-33.778144 39.48301867 17.54825066s-4.38760853-35.09759467-17.54825067-87.7412544c0 0 39.48301867 70.19300373 30.70998507 114.06253867l-37.83807467-22.78782293 1.49967253 17.9753248-14.08250986-5.2788928z" fill="#E8C513" p-id="14068"></path><path d="M219.74833067 97.206576l2.22384106-33.77923627-39.48301866 17.54825174s4.38651627-35.0965024 17.54825173-87.74125547c0 0-39.48411093 70.19300373-30.70998507 114.06363093l37.83807467-22.78891413-1.4996736 17.9753248 14.08250987-5.2778016z" fill="#E8C513" p-id="14069"></path><path d="M753.69204053 108.34435307l-16.1392352-14.1305696s21.299072-30.03715307 69.35851734-16.930032c50.68960747 13.824736 77.55046827 110.31827093-1.09226027 125.6099136l-7.40770773-16.15671147s62.76454293-10.39285547 32.05565013-67.4241248c-30.71107733-57.03126933-76.7749632-10.96847573-76.77496427-10.96847573" fill="#E8C513" p-id="14070"></path><path d="M290.3957152 109.4912256l14.07486293-16.91583253s-17.47616213-25.12198293-67.72012693-14.19938134c-51.3416864 11.16180587-78.64272853 109.22601173 0.54613013 125.06378347l8.380912-15.55596907s-62.76454293-10.39394773-32.05565013-67.42521706c30.70998507-57.03126933 76.77387093-10.96738347 76.773872-10.96738347" fill="#E8C513" p-id="14071"></path><path d="M275.53879253 127.03947627s-26.32237653-26.32237653-43.8706272 0c-12.16777813 18.25057387 0 35.0965024 17.54825067 39.48301866 17.5471584 4.38760853 26.32237653-39.48301867 26.32237653-39.48301866M770.71382293 130.28021227s26.3234688-26.32237653 43.8706272 0c12.16777813 18.25057387 0 35.0965024-17.5471584 39.48301866-17.54934293 4.38760853-26.3234688-39.48301867-26.3234688-39.48301866" p-id="14072"></path><path d="M529.98733973 17.3623616s153.5466496-4.38760853 206.19140267 65.80648747c0 0 61.41887893 61.41887893 67.99974507 125.03101546 0 0 30.37466133 117.15581973 22.07566933 230.63836907a42.647296 42.647296 0 0 0-0.11031787 3.75518933l4.3559328 270.11811094s-4.38760853 149.16013333-92.12777066 214.96552853c-87.7412544 65.80648747-210.5790112 57.0323616-210.57901227 57.0323616s-153.5466496 4.38760853-219.35313707-57.0323616C248.35134613 871.59387413 230.32905387 817.33803733 227.650832 724.82906773c-0.47294827-16.35877973 0.41069013-32.72848213 2.4390176-48.9671136 3.647056-29.19611307 9.4098208-80.3947136 8.15809067-103.53642773-8.7730336-162.3196832-10.96738347-256.6418048-10.96738347-256.64180587s-8.77412587-65.8053952 19.74260053-138.1927488c26.32128427-61.41887893 67.99865387-151.35448427 282.9641824-160.12861013" fill="#C3E3EE" p-id="14073"></path><path d="M828.3076064 631.55114667c0.07973547 3.2538432 1.6547744 74.28024107-0.098304 91.80555413-4.36904 43.69040427-20.67102293 152.448928-95.02662933 208.62168213-81.63005973 61.6679136-190.69550827 52.86648213-197.69908054 52.42848534-0.25449707-0.016384 0.25558933-0.00546133 0 0-8.31646827 0.17585387-164.6177984 2.09277013-226.0978432-55.70526614-57.36113173-53.92706667-79.15936747-109.17904427-81.91950826-197.69908053-0.4751328-15.25341227 0.99504853-44.98582507 3.27677973-60.07430613 4.906432-32.44121813 7.6458208-49.27949973 7.6458208-73.1814272 0-87.26502933-4.9850752-156.1910112-7.6458208-197.69908054-0.2632352-4.11235947-8.98711573-122.88581653-3.27677973-108.13375146 52.64475307 135.99839893 181.96944213 111.56453973 280.58633066 203.63879146 6.8211648 6.36896853 14.19392 5.71579733 20.45584747-0.43472 106.7684256-104.85478613 261.36473813-91.27144 287.68711467-218.49571306 1.04092373-5.0342272 10.73254827 99.72007147 10.92260053 104.85697066l1.189472 250.07186134z" fill="#0DB7F6" p-id="14074"></path><path d="M512.44018133 254.2637504S701.36732053 371.24808533 810.82489067 279.9515232c2.8158464-2.34945173 5.5191904-9.17826133 4.82451306-11.52225173-8.73808107-29.49102293 0-108.13375147-89.56532906-194.42229974-91.776064-88.41845653-354.66013547-69.20887787-433.62726507 27.3065024-66.39630827 81.15165013-65.439488 159.0429024-65.3171552 184.5351616 0.02730667 5.7005056 2.5220288 11.13996053 6.90963733 14.78155627 20.63388587 17.12554667 93.03653227 53.4388256 278.3908896-46.3664416" fill="#0DB7F6" p-id="14075"></path><path d="M285.9021568 115.51285547c-63.35108693 86.28854933-55.70526613 125.60991253-60.07430613 173.66935786-0.31893973 3.51380053 2.7164512 7.31049707 5.8392224 8.95216427 20.37501973 10.7085184 65.15768427 57.67570347 254.44963946-30.7088928-74.60464213-11.01107413-89.89628373-4.4575136-114.063632-26.3234688-9.20119893-8.32411413-30.7088928-30.7088928-17.54825066-57.03126933 5.76494933-11.5298976 20.33788373-21.27831893 33.00482346-30.76678294 14.77281813-11.06568747 67.89707307-30.652096 54.73643094-52.586864-23.21271147-38.6878528-96.51538027-21.93586027-116.35519254 10.85815787 64.39310293-86.9985184 270.05148267-83.46178027 309.53450134-79.07417067-21.934768-8.77412587-58.9274336-13.10712107-72.089168-13.10712106-4.38760853 0-16.36533333-1.09226027-20.75294187-1.09226027-11.5626656 0-22.01341013-1.595792-60.853088 3.4482656-124.83113173 16.21241707-173.79824427 63.75631467-195.8280384 93.76288427" fill="#0093B5" p-id="14076"></path><path d="M232.5889408 504.85661867s-38.20179733-4.91735467-64.52417387 30.17914666c0 0-13.1617344 13.16064213 8.7741248 17.54715947l8.77412587-4.3876096s-21.934768 8.77412587-4.38651627 21.93586027c17.54825067 13.16064213 52.6436608-26.3234688 52.64365974-26.3234688l-1.28122027-38.951088z" fill="#F6D2A2" p-id="14077"></path><path d="M828.94985493 500.4701024s38.2028896-4.91735467 64.52417387 30.17914667c0 0 13.1617344 13.16064213-8.7741248 17.5471584l-8.7730336-4.38760854s21.934768 8.77412587 4.38760853 21.93586027c-17.54825067 13.1617344-52.64475307-26.32237653-52.64475306-26.32237653l1.28012906-38.95218027z" fill="#F6D2A2" p-id="14078"></path><path d="M436.68101973 93.223104c-25.18533333-9.70473067-53.31867733-8.2695008-77.7274144 3.24947307-23.44099413 11.06241067-49.81033813 32.70772907-52.70592 74.43752746-5.3182144 76.62095467 74.57952 83.35364587 92.12777174 83.35364587 31.9387776 0 92.128864-21.934768 92.128864-83.35364587 0 0 1.52261013-56.36171413-53.82330134-77.68700053" fill="#FFFFFF" p-id="14079"></path><path d="M660.0012448 83.29118187c-15.5384928-5.07900907-51.58089173-2.0709248-67.72012693 4.36904106-12.88539307 5.14126827-51.3253024 28.4107776-51.3253024 72.2814048 0 78.9671296 72.38517013 85.5479968 89.93451306 85.5479968 31.93768533 0 89.93451307-19.74150933 89.93451307-81.1603872 0 0 6.399552-59.06068907-60.8235968-81.03805546" fill="#FFFFFF" p-id="14080"></path><path d="M352.23948267 171.99362667c0 16.9595232 11.78548693 30.7088928 26.32237653 30.7088928 14.53798187 0 26.32237653-13.74937067 26.32237653-30.7088928 0-16.96061547-11.78439467-30.70998507-26.32237653-30.70998614-14.5368896 0-26.32237653 13.74937067-26.32237653 30.70998614" p-id="14081"></path><path d="M575.98022827 167.60601707c0 16.96061547 11.78439467 30.7088928 26.32237653 30.7088928s26.3234688-13.7482784 26.3234688-30.7088928-11.78548693-30.70998507-26.3234688-30.70998507-26.32237653 13.74937067-26.32237653 30.70998507" p-id="14082"></path><path d="M396.11010987 185.1542688c0 4.8463584-3.43734293 8.77412587-7.67749654 8.7741248s-7.67749653-3.92776747-7.67749653-8.7741248 3.43734293-8.77412587 7.67749653-8.77412587 7.67749653 3.92776747 7.67749654 8.77412587M619.85085547 176.38014293c0 4.8463584-3.43625067 8.77412587-7.67749547 8.77412587-4.2401536 0-7.67749653-3.92776747-7.67749653-8.77412587s3.43734293-8.77412587 7.67749653-8.77412586 7.67749653 3.92776747 7.67749547 8.77412586M476.89148267 316.42427307s-1.74215467 49.7098496 20.1937056 49.7098496 21.93586027-21.934768 21.93586026-21.93476694v-43.8706272h-43.87172053l1.74215467 16.09554454z" fill="#FFFFFF" p-id="14083"></path><path d="M520.76211093 316.42427307s-6.128672 49.7098496 20.19370454 49.7098496c21.934768 0 21.934768-21.934768 21.934768-21.93476694v-43.8706272h-43.8706272l1.74215466 16.09554454z" fill="#FFFFFF" p-id="14084"></path><path d="M532.1816896 247.68397547c-2.11789227 0-10.34698027-0.18349973-12.4605024-0.320032-14.45824747-0.9327904-66.50662613-1.14250453-66.50662613 44.1906592 0 52.64475307 48.25714453 8.77412587 65.8053952 8.77412586s39.48301867 17.54825067 57.0323616 13.16064214c17.5471584-4.38651627 21.934768-8.77412587 21.93476693-30.70889387 0-21.0948192-35.0965024-35.0965024-65.8053952-35.09650133" fill="#F6D2A2" p-id="14085"></path><path d="M558.50406613 245.48962453c2.19435093 13.16064213-15.7132544 24.12911787-35.09650133 24.12911787s-37.28976-2.19325867-37.28976-24.12911787c0-13.3266656 24.4873792-26.32237653 43.8706272-26.32237653 19.38215573 0 26.32456107 13.17702613 28.51563413 26.32237653" p-id="14086"></path><path d="M287.12330347 922.56419307s20.25159467 20.25159467 60.75259946 44.55219733l-60.75259946 64.80269973h-16.20040214v-16.20040106l-28.3517952 16.20040106H161.5680032l4.05010027-24.30060266 68.85280106-28.3517952 52.65239894-56.7024992z" fill="#E8C513" p-id="14087"></path><path d="M762.30888107 920.50855893s-20.31713067 20.1849664-60.8967776 44.3544992l60.54288533 64.99930667 16.20040213 0.0524288 0.0524288-16.20040213 28.2993664 16.29215146 81.00201067 0.26214294-3.97145813-24.31480214-68.76105067-28.57352533-52.46780693-56.87179947z" fill="#E8C513" p-id="14088"></path><path d="M516.8266976 526.26164053s-21.93586027-39.48301867-153.54774187-78.9671296C231.66707307 407.81149227 244.82880747 355.16564693 244.82880747 355.16564693s-13.1617344 96.51647253 8.7741248 127.2253664c0 0-11.39227307-5.23738773-13.16173334-8.77412586-4.38651627-8.77412587-4.38651627-17.54825067-4.38651733-17.54825067l-4.38760853-122.8377568c-0.102672-1.9551456-2.20636587-34.94030827-1.4701824-33.12606507 8.18539733 20.1773216 37.56173333 83.20619093 104.56642986 107.95898987 94.3221216 34.84418987 151.353392 65.62517227 182.06337707 91.911504 0 0 35.0965024-25.46713707 85.54690453-58.81602347 0 0 126.17898027-57.4375904 131.35520107-61.31948266 8.73808107-6.55356053 64.4433472-27.3065024 81.4170688-97.53992 0 0 20.01457387 110.14897067 3.77922027 175.09038826-4.36904 17.47616213-21.32637867 33.7748672-16.94095467 25.0007424 21.64094933-43.28080747 12.41572053-122.17257067 8.77303253-140.38600853 0 0-57.8930624 63.84151147-109.67493013 87.74125547-57.03126933 26.32237653-78.96603733 8.77412587-184.2555424 96.51538026" fill="#0093B5" p-id="14089"></path><path d="M538.76146453 508.7133888c5.9047584-6.2837728 12.44848853-11.9285728 19.2445312-17.21838827 1.70720213-1.31289707 3.41986667-2.621424 5.1598368-3.8939072l5.27015574-3.74426773c1.747616-1.26374507 3.59462827-2.37785067 5.3881184-3.57496747l2.71208213-1.76290773 2.752496-1.69737173c3.68419307-2.2456864 7.45358293-4.34719573 11.23826347-6.41812054 1.90053227-1.0190784 3.8545856-1.9420384 5.7791488-2.91633493l2.89667306-1.43850667c0.97429653-0.46421013 1.9748064-0.87490027 2.9600256-1.31508053 1.98026773-0.857424 3.94524373-1.7443392 5.93424854-2.5777344l6.05876693-2.27736213 3.04085227-1.09007574c1.03000107-0.32112427 2.0578176-0.6498944 3.09437333-0.94917333a206.50269653 206.50269653 0 0 1 6.21277547-1.7705536 213.64607787 213.64607787 0 0 1-5.76385707 2.89667307l-2.89121173 1.3871712-2.8420608 1.49530346-5.7037824 2.90650454c-1.8655808 1.0387392-3.7551904 2.02286613-5.6273248 3.03539093-7.4677824 4.09597547-14.88532053 8.26404053-22.11280534 12.76087467l-2.74375786 1.63074453-2.70443627 1.698464-5.39576427 3.41440533-5.38156586 3.4482656a261.877008 261.877008 0 0 1-5.3477056 3.50943147c-7.10952107 4.7251168-14.1513216 9.5550912-21.22807574 14.4615232M492.69757973 510.90664747c-7.01995627-6.13522453-14.39598827-11.69919787-21.98501226-16.930032-3.8076192-2.59302507-7.65455893-5.11833067-11.572496-7.5245792-1.9879136-1.15561067-3.94196693-2.36583573-5.91349547-3.54547627-1.98682133-1.15233493-4.02716267-2.21401173-6.0369216-3.3259328-8.07180267-4.37777813-16.35550293-8.397296-24.89697707-11.843376-4.2270464-1.8491968-8.57751893-3.36743787-12.91925333-4.97633707-2.14519893-0.8934688-4.37450133-1.5062272-6.5743136-2.2456864a254.07827093 254.07827093 0 0 1-6.616912-2.25333333c2.30685333 0.3167552 4.60824533 0.69358507 6.91400747 1.07915307 2.30357653 0.39321387 4.62135253 0.76239787 6.88014613 1.3609568l6.8047808 1.7345088 1.7017408 0.4456416 1.66569707 0.55268373 3.33466986 1.107552c2.21401173 0.76676693 4.48591253 1.39918507 6.633296 2.3439904l6.51642347 2.6640224c1.09881387 0.41724373 2.15066027 0.93825173 3.20359893 1.45598293l3.16646187 1.53899414c2.11461547 1.02126293 4.2336 2.0337888 6.27285013 3.20032213 2.0370656 1.16544107 4.10362133 2.28063893 6.116656 3.48758613 1.9879136 1.2495456 3.99330347 2.46741547 5.96483307 3.74099094 3.86878507 2.65528427 7.7419392 5.308384 11.37698133 8.2749632 7.3257888 5.829392 14.24088747 12.25952747 19.9632384 19.6574048" p-id="14090"></path><path d="M804.17848747 499.94800213c-4.401808 4.3592096-9.07886613 8.43770987-13.857504 12.3840448a261.3920448 261.3920448 0 0 1-14.768448 11.30052374c-10.10122133 7.1969024-20.67757653 13.7450016-31.6810048 19.50339626-21.96425813 11.53754347-45.8945856 19.7655392-70.68889067 22.65893547-6.19093013 0.70778453-12.4266432 1.107552-18.66235627 1.1108288-6.21932907-0.00436907-12.4397504-0.11359467-18.63941866-0.43799573-12.4102592-0.56142187-24.76809067-1.71375573-37.10735254-2.855168-12.33926293-1.15888747-24.66104853-2.40187947-36.98501973-3.4122208-12.32506347-1.0026944-24.6490336-1.75307733-36.94460587-1.563024-12.31523307 0.23920533-24.64466453 1.2364384-36.95771306 2.38331093-12.3174176 1.1577952-24.626096 2.52093653-36.9598976 3.76938987-12.3338016 1.2298848-24.69053973 2.4302784-37.1139072 2.9775008-6.2116832 0.25777387-12.4397504 0.36699947-18.677648 0.1452704a127.93314987 127.93314987 0 0 1-9.35302294-0.65426347 164.3141504 164.3141504 0 0 1-9.26018133-1.36641707c-12.26935787-2.12116907-24.3716-5.32367573-35.98123307-9.8445408-11.61946347-4.47935893-22.73757867-10.2901824-32.9545792-17.3986112-10.22355413-7.09313707-19.55691733-15.45875733-27.64291946-24.89042346-4.03480853-4.7185632-7.7812608-9.68943893-11.1181152-14.92027307-3.31937813-5.2352032-6.3536768-10.67793493-8.64196267-16.43851413 2.41607893 5.70596693 5.56725013 11.06677973 8.99257813 16.2091392a138.80441493 138.80441493 0 0 0 11.33765974 14.65376213c8.19850453 9.24379733 17.60395627 17.3887808 27.850448 24.2459904a160.6911232 160.6911232 0 0 0 32.84207786 16.79896c11.52771307 4.35265707 23.52837547 7.3956928 35.68632214 9.3704992 12.12736427 2.2216576 24.4644416 2.0337888 36.78950506 1.38826347 12.32287893-0.6761088 24.63811093-1.86448853 36.9467904-3.16318614 12.30977173-1.29760533 24.61954347-2.71426667 36.96426667-3.92776746 12.34472427-1.20257813 24.72658453-2.25770133 37.18490347-2.55370347 12.48344107-0.30474027 24.91991467 0.586544 37.27446826 1.6525888 12.3611072 1.08242987 24.68398613 2.39532693 37.00468054 3.62193493 12.3174176 1.2495456 24.64138773 2.3407136 36.96863573 3.14352427 6.165808 0.42925867 12.33270933 0.640064 18.4996096 0.75038293 6.1527008 0.06335147 12.30212587-0.2774336 18.42205973-0.9164064 24.52451627-2.59630187 48.28335787-10.61567573 70.3360896-21.68573226 11.03619627-5.55741973 21.67590187-11.9154656 31.86232-18.93651307a290.28560107 290.28560107 0 0 0 14.93338027-11.02090453c4.852912-3.84257067 9.60861227-7.81621333 14.09998507-12.08258134M676.9542144 587.6805184c7.97896-0.34406187 15.97648853 1.0584 23.69330667 3.15554027 7.73757013 2.11789227 15.20207573 5.1696672 22.3541952 8.8068928 1.7607232 0.96009707 3.48977067 1.97699093 5.23629546 2.96220906 0.86616213 0.50571627 1.75307733 0.9753888 2.60067094 1.509504l2.51438293 1.6482208c1.65914347 1.12502827 3.34559253 2.20636587 4.97742933 3.36525334a305.2397344 305.2397344 0 0 1 4.754608 3.66562453l2.36255894 1.84373547 2.24022506 1.99446613 4.43348374 4.0249792c0.74601387 0.6597248 1.42867627 1.39044693 2.1135232 2.1168l2.05126506 2.17687467a258.22558187 258.22558187 0 0 1 4.02497814 4.40617706 259.08300693 259.08300693 0 0 1-4.64429014-3.7420832c-1.55428587-1.23097707-2.9873312-2.5919328-4.60059946-3.74426773l-4.72620907-3.56950613-2.34289813-1.79786027-2.4401088-1.66351147a278.76881067 278.76881067 0 0 1-4.852912-3.34996266c-1.64385173-1.07369173-3.3401312-2.06874027-5.004736-3.10529494l-2.49144534-1.56411626c-0.83667093-0.51336213-1.71047893-0.9590048-2.56353386-1.44178347l-5.1532832-2.83332267-5.26360214-2.617056c-1.73341653-0.92186773-3.58589013-1.5728544-5.3608128-2.40624853-0.89783787-0.38993707-1.78256853-0.81919467-2.69351253-1.17854827l-2.74485013-1.0551232-2.74485014-1.06167786-2.78198613-0.95900374c-7.43610667-2.5056448-15.06008213-4.57547733-22.9472928-5.58691093M373.0666976 598.6489952a457.49861013 457.49861013 0 0 0-16.85685013 9.3541152c-2.7426656 1.64712853-5.49734507 3.26258133-8.17447467 4.99927467-2.69569813 1.70283307-5.3673664 3.44061973-7.94837653 5.30073813a126.5929472 126.5929472 0 0 0-7.64472854 5.68849067 112.75947307 112.75947307 0 0 0-7.22530026 6.19093013c-4.6421056 4.32971947-8.852768 9.10398827-12.38841494 14.530336 2.31886827-6.06204373 6.14068587-11.54409707 10.57198614-16.3303808 4.4247456-4.8266976 9.49283307-9.00349973 14.8066784-12.76196693a127.78460267 127.78460267 0 0 1 16.79677546-9.86092374c5.82393067-2.8453376 11.82917653-5.33896747 18.06270507-7.11061333M540.95581547 633.74440427a442.980288 442.980288 0 0 1 4.52523413 68.93253546c-0.13107093 11.53754347-0.9426208 23.079456-2.535136 34.53398827-0.84650133 5.7365504-1.80769067 11.39227307-2.69788267 17.0687488-0.47950187 2.83113813-0.85960853 5.67866027-1.24080746 8.52836693l-1.1643488 8.54038187c-3.006992 22.7954688-4.84198933 45.73839253-6.30889494 68.696608-0.69686187 11.48293013-1.29432853 22.97459947-1.68644906 34.47609813a1284.7665888 1284.7665888 0 0 0-0.9164064 34.51869654c-0.3331392-11.51132907-0.25231253-23.02921173-0.14308587-34.5460032 0.168208-11.5167904 0.586544-23.02921173 1.08133653-34.53835734 0.2905408-5.75402667 0.537392-11.50914453 0.96992747-17.25552533l0.59418987-8.62120853 0.70123093-8.614656c0.42598187-5.74747307 1.0616768-11.47528427 1.59469973-17.2140192 0.59528213-5.73218133 1.28122133-11.45562453 1.95405334-17.18015894l1.20476266-8.56441173c0.39758293-2.85407573 0.79516587-5.710336 1.29323627-8.55021227 0.9262368-5.69285973 1.92456213-11.38353493 2.79181653-17.0294272 1.68972587-11.338752 2.41935573-22.81294507 2.81693867-34.2893216 0.36372267-11.4807456 0.21517547-22.98442987-0.3003712-34.4739136a518.7296192 518.7296192 0 0 0-2.53404373-34.41820906" p-id="14091"></path><path d="M812.9537056 510.90664747s32.90215147 239.09355413-37.29085227 331.22241813c0 0 29.74661227-56.9198592 17.54825067-166.708384-4.38760853-39.48301867-21.93586027-48.25714453-48.25823573-74.57952107-29.2649248-29.2649248-161.60971413-27.03453013-175.48250987-13.1617344-8.7730336 8.77412587-17.5471584 21.93586027-10.96738453 50.45149547 10.29892053 44.628656-15.35499307 103.09624747-15.354992 103.09624747s13.1617344-57.0323616-8.77412587-118.45124054c-15.420528-43.17704213-34.20194133-43.32231253-67.57485653-45.07866773-28.74282453-1.513872-69.82381973 2.91524267-125.45481174 23.14389973C244.82989973 635.93766293 271.15009173 820.19538987 271.15009173 820.19538987s-26.32128427-74.58061227-21.934768-114.0647232c3.105296-27.94438293 13.1617344-118.45014827 8.77412587-149.16013334l-8.77412587-65.8053952s35.0965024 57.03126933 92.128864 65.8053952c11.1181152 1.71047893 45.06556053 16.73670187 109.67383787 8.77412587 24.11601067-2.97313173 61.42106347-4.38760853 87.74343893-4.3876096 51.63550507 0 101.11816427 13.91430187 140.38600854 8.77412587 73.85098347-9.6665024 133.80623253-59.224528 133.80623253-59.224528" fill="#0093B5" p-id="14092"></path><path d="M231.83528107 667.6503424l133.63802453 110.86658667-21.9358592-74.57952107 184.25663467 92.128864 184.25663573-87.7412544-35.09541013 57.03017707 152.346256-85.6899904v41.50588373l-196.21797547 101.21646827 30.7088928-70.19191147-135.99839893 92.12667947-144.77252374-92.12667947 17.5471584 65.8053952-173.10247466-97.9222112z" fill="#E8C513" p-id="14093"></path><path d="M425.28328533 745.61368533v32.93601174l25.06190827 15.322224 0.48824-35.0178592z" fill="#FFD97B" p-id="14094"></path><path d="M434.36652053 750.54523947l-3.19267626 31.2462848s13.37690987 8.397296 12.77179733 8.59062613c-0.6062048 0.1944224 1.427584-34.80486827 1.427584-34.80486827l-11.00670507-5.03204266z" fill="#FFE6AE" p-id="14095"></path><path d="M600.4730688 762.13084267l3.2767808 29.49102293-20.75294187 14.19938133-5.46130133-32.76780266z" fill="#FFD97B" p-id="14096"></path><path d="M582.99690773 770.86892373l10.92260054-5.46130026 4.36904106 29.49102293-9.83034133 7.6458208z" fill="#FFE6AE" p-id="14097"></path><path d="M834.51710507 547.4831616l12.6341728 10.64407573 16.24299946-38.44537173-13.16064213 4.385424 26.32237653-26.32128427h-13.1617344l17.549344-17.54825066-37.98880746 20.8840128z" fill="#E8C513" p-id="14098"></path><path d="M228.41432213 550.24985707l-12.94546666 10.90512533-16.64276694-39.39126933 13.48395094 4.49465066-26.97008747-26.9700864h13.48613653l-17.98078613-17.98078613 39.52124693 23.0499648z" fill="#E8C513" p-id="14099"></path><path d="M591.41495573 577.80102613c0 39.3727008-31.91802453 71.28963307-71.28963306 71.28963307s-71.29072533-31.91693227-71.29072534-71.28963307 31.91802453-71.28963307 71.29072534-71.28963306c39.3727008 0 71.28963307 31.91693227 71.28963306 71.28963306" fill="#E8C513" p-id="14100"></path><path d="M574.58978133 577.99217173c0 30.18570027-24.46990293 54.654512-54.65560426 54.65451094-30.18570027 0-54.65560427-24.46881067-54.6556032-54.65451094s24.46990293-54.65560427 54.6556032-54.65560426c30.18570027 0 54.65560427 24.4709952 54.65560426 54.65560426" fill="#FFFFFF" p-id="14101"></path><path d="M203.2552032 994.1618432l-3.64050347 35.57272747h21.84520214l1.09226026-43.69040427z" fill="#F4D347" p-id="14102"></path><path d="M206.8957056 992.33776853l-4.36904 37.39680214H218.5468448l0.72744533-41.5058848z" fill="#FFEB88" p-id="14103"></path><path d="M209.08022613 991.42463893l-2.91305813 38.30993174h8.73808107l1.09226026-40.41362454z" fill="#FFE6AE" p-id="14104"></path><path d="M850.14516267 994.02858773l3.73771413 34.0260864-23.0860096-0.07427306 0.1387168-42.7357696z" fill="#F4D347" p-id="14105"></path><path d="M846.30368427 992.27223253l4.5012032 35.7726112-16.92893974-0.05461226 0.13216427-40.9914304z" fill="#FFEB88" p-id="14106"></path><path d="M843.9979232 991.39187093l2.95893227 36.64095787-9.23396694-0.03058347 0.12779414-39.24599786z" fill="#FFE6AE" p-id="14107"></path><path d="M520.19195093 535.48686933c23.52619093 0 42.598144 19.07195413 42.598144 42.598144s-19.07195413 42.598144-42.598144 42.59814507-42.598144-19.07195413-42.598144-42.59814507 19.07195413-42.598144 42.598144-42.598144" fill="#FFF9DC" p-id="14108"></path><path d="M525.10712107 507.63532907l-7.6458208-0.00109227s-0.7121536 14.22231893-1.09226027 14.19938133c-0.38010667-0.02184533 8.73808107 0 8.73808107 0v-14.19828906z" fill="#FFE6AE" p-id="14109"></path><path d="M583.69813867 487.89709653l-92.128864 87.7412544h30.70998506l-70.19300373 92.128864L570.53640427 558.09010027h-35.0965024z" fill="#FFEC40" p-id="14110"></path></svg>