<svg t="1703318400000" class="icon" viewBox="0 0 1024 1024" version="1.1" xmlns="http://www.w3.org/2000/svg" p-id="1234" width="200" height="200">
  <defs>
    <linearGradient id="aiGradient" x1="0%" y1="0%" x2="100%" y2="100%">
      <stop offset="0%" style="stop-color:#667eea;stop-opacity:1" />
      <stop offset="100%" style="stop-color:#764ba2;stop-opacity:1" />
    </linearGradient>
  </defs>
  <!-- Brain outline -->
  <path d="M512 128c-176.731 0-320 143.269-320 320 0 88.366 35.817 168.349 93.867 226.133C359.253 746.517 426.667 832 512 832s152.747-85.483 226.133-157.867C796.183 616.349 832 536.366 832 448c0-176.731-143.269-320-320-320z" fill="url(#aiGradient)" opacity="0.2"/>

  <!-- Neural network nodes and connections -->
  <circle cx="380" cy="350" r="25" fill="url(#aiGradient)"/>
  <circle cx="512" cy="280" r="25" fill="url(#aiGradient)"/>
  <circle cx="644" cy="350" r="25" fill="url(#aiGradient)"/>
  <circle cx="380" cy="520" r="25" fill="url(#aiGradient)"/>
  <circle cx="512" cy="450" r="25" fill="url(#aiGradient)"/>
  <circle cx="644" cy="520" r="25" fill="url(#aiGradient)"/>
  <circle cx="512" cy="620" r="25" fill="url(#aiGradient)"/>

  <!-- Connection lines -->
  <line x1="380" y1="350" x2="512" y2="280" stroke="url(#aiGradient)" stroke-width="3" opacity="0.6"/>
  <line x1="512" y1="280" x2="644" y2="350" stroke="url(#aiGradient)" stroke-width="3" opacity="0.6"/>
  <line x1="380" y1="350" x2="512" y2="450" stroke="url(#aiGradient)" stroke-width="3" opacity="0.6"/>
  <line x1="644" y1="350" x2="512" y2="450" stroke="url(#aiGradient)" stroke-width="3" opacity="0.6"/>
  <line x1="380" y1="520" x2="512" y2="450" stroke="url(#aiGradient)" stroke-width="3" opacity="0.6"/>
  <line x1="644" y1="520" x2="512" y2="450" stroke="url(#aiGradient)" stroke-width="3" opacity="0.6"/>
  <line x1="380" y1="520" x2="512" y2="620" stroke="url(#aiGradient)" stroke-width="3" opacity="0.6"/>
  <line x1="644" y1="520" x2="512" y2="620" stroke="url(#aiGradient)" stroke-width="3" opacity="0.6"/>

  <!-- Sparkle effects -->
  <path d="M700 250 l10 30 l30 10 l-30 10 l-10 30 l-10 -30 l-30 -10 l30 -10 z" fill="#667eea"/>
  <path d="M320 700 l8 24 l24 8 l-24 8 l-8 24 l-8 -24 l-24 -8 l24 -8 z" fill="#764ba2"/>
  <path d="M750 600 l6 18 l18 6 l-18 6 l-6 18 l-6 -18 l-18 -6 l18 -6 z" fill="#667eea"/>
</svg>
