<?xml version="1.0" standalone="no"?><!DOCTYPE svg PUBLIC "-//W3C//DTD SVG 1.1//EN" "http://www.w3.org/Graphics/SVG/1.1/DTD/svg11.dtd"><svg t="1682937374976" class="icon" viewBox="0 0 1024 1024" version="1.1" xmlns="http://www.w3.org/2000/svg" p-id="30895" xmlns:xlink="http://www.w3.org/1999/xlink" width="150" height="150"><path d="M526.592 525.44h-29.184V338.048A14.72 14.72 0 0 1 512 323.328a14.72 14.72 0 0 1 14.592 14.72z" fill="#2B3B4E" p-id="30896"></path><path d="M546.432 679.936h-68.864V491.136A34.304 34.304 0 0 1 512 456.704a34.304 34.304 0 0 1 34.432 34.432z" fill="#324A5E" p-id="30897"></path><path d="M448 407.808a13.824 13.824 0 0 1-9.984-4.224 104.448 104.448 0 0 1 0-147.584 14.208 14.208 0 1 1 20.096 20.096 76.8 76.8 0 0 0 0 107.392 14.336 14.336 0 0 1 0 20.096 14.208 14.208 0 0 1-10.112 4.224zM576 407.808a14.208 14.208 0 0 1-10.112-4.224 14.336 14.336 0 0 1 0-20.096 76.8 76.8 0 0 0 0-107.392A14.208 14.208 0 1 1 585.728 256a104.448 104.448 0 0 1 0 147.584 13.824 13.824 0 0 1-9.728 4.224z" fill="#FFFFFF" p-id="30898"></path><path d="M398.464 457.6a14.208 14.208 0 0 1-10.112-4.224 174.72 174.72 0 0 1 0-247.168 14.208 14.208 0 0 1 20.096 20.096 146.304 146.304 0 0 0 0 206.976 14.08 14.08 0 0 1 0 20.096 13.824 13.824 0 0 1-9.984 4.224zM625.536 457.6a13.824 13.824 0 0 1-9.984-4.224 14.08 14.08 0 0 1 0-20.096 146.304 146.304 0 0 0 0-206.976 14.208 14.208 0 1 1 20.096-20.096 174.72 174.72 0 0 1 0 247.168 14.208 14.208 0 0 1-10.112 4.224z" fill="#FFFFFF" p-id="30899"></path><path d="M674.816 506.88a14.336 14.336 0 0 1-10.112-24.32 216.32 216.32 0 0 0 0-305.536 14.336 14.336 0 0 1 0-20.096 14.464 14.464 0 0 1 20.224 0 244.864 244.864 0 0 1 0 345.6 14.336 14.336 0 0 1-10.112 4.352zM349.184 506.88a14.336 14.336 0 0 1-10.112-4.224 244.864 244.864 0 0 1 0-345.6 14.464 14.464 0 0 1 20.224 0 14.336 14.336 0 0 1 0 20.096 216.32 216.32 0 0 0 0 305.536 14.336 14.336 0 0 1-10.112 24.32z" fill="#FFFFFF" p-id="30900"></path><path d="M550.4 329.856a38.4 38.4 0 1 1-38.4-38.4 38.4 38.4 0 0 1 38.4 38.4z" fill="#E6E9EE" p-id="30901"></path><path d="M841.472 819.84h-94.464l11.648 51.456h71.296l11.52-51.456zM276.992 819.84h-94.464l11.52 51.456h71.296l11.648-51.456z" fill="#324A5E" p-id="30902"></path><path d="M118.4 599.424m25.6 0l736 0q25.6 0 25.6 25.6l0 181.504q0 25.6-25.6 25.6l-736 0q-25.6 0-25.6-25.6l0-181.504q0-25.6 25.6-25.6Z" fill="#FFFFFF" p-id="30903"></path><path d="M118.4 657.408h787.2v116.608H118.4z" fill="#E6E9EE" p-id="30904"></path><path d="M251.264 715.776a27.136 27.136 0 1 1-27.136-27.136 27.136 27.136 0 0 1 27.136 27.136z" fill="#FF7058" p-id="30905"></path><path d="M327.424 715.776a27.136 27.136 0 1 1-27.136-27.136 27.136 27.136 0 0 1 27.136 27.136z" fill="#FFD05B" p-id="30906"></path><path d="M403.584 715.776a27.136 27.136 0 1 1-27.136-27.136 27.136 27.136 0 0 1 27.136 27.136z" fill="#54C0EB" p-id="30907"></path></svg>